<svg version="1.1" id="Layer_1" xmlns="http://www.w3.org/2000/svg" xmlns:xlink="http://www.w3.org/1999/xlink" x="0px" y="0px"
	 width="100%" viewBox="0 0 144 184" enable-background="new 0 0 144 184" xml:space="preserve">
<path fill="#1A3547" opacity="1.000000" stroke="none" 
	d="
M145.000000,73.000000 
	C145.000000,110.666664 145.000000,147.833328 145.000000,185.000000 
	C97.000015,185.000000 49.000031,185.000000 1.000034,185.000000 
	C1.000023,123.666695 1.000023,62.333385 1.000011,1.000059 
	C48.999966,1.000039 96.999931,1.000039 144.999939,1.000020 
	C145.000000,24.833334 145.000000,48.666668 145.000000,73.000000 
M81.000000,25.999973 
	C81.000000,25.999973 81.001747,25.993145 80.655479,26.318455 
	C80.427711,26.538710 80.207878,26.766623 80.000000,26.999514 
	C80.000000,26.999514 80.002060,26.993942 79.316727,27.160299 
	C76.550194,30.114576 73.783669,33.068855 70.791771,36.631645 
	C70.209671,38.023228 69.627579,39.414814 68.606354,41.373245 
	C68.072083,42.916412 67.537811,44.459576 67.000069,46.000084 
	C67.000069,46.000084 67.006065,46.005219 66.442688,46.372593 
	C64.530655,49.786293 62.125229,53.021866 60.814468,56.652630 
	C58.451710,63.197407 56.621086,69.945663 54.812973,76.674698 
	C53.850994,80.254753 52.108181,82.763222 48.252876,83.122314 
	C42.841877,83.626320 37.390072,83.769623 32.007652,84.467636 
	C29.624994,84.776627 27.369593,86.066910 24.861858,87.712555 
	C24.408997,91.627144 22.167049,96.125748 29.062380,97.828094 
	C32.684986,97.519447 36.307590,97.210808 40.318424,97.510681 
	C42.193657,98.397285 43.984165,99.671356 45.958851,100.103142 
	C54.323780,101.932228 58.021759,108.407677 55.019638,116.453697 
	C54.441288,118.003738 53.674942,119.483650 52.313660,121.218300 
	C47.096085,123.100655 42.198841,125.291214 41.356632,132.257263 
	C39.905293,134.172485 38.453953,136.087692 36.478378,138.451324 
	C31.914007,144.775101 31.713692,153.339584 36.495197,158.382492 
	C37.337982,159.261154 38.180767,160.139801 39.333221,161.615494 
	C45.488770,169.074173 56.038570,168.300995 61.532677,159.747696 
	C62.338345,159.470535 63.144012,159.193359 64.329132,159.166321 
	C65.209480,158.433716 66.089828,157.701111 66.985840,156.978348 
	C66.985840,156.978348 66.966125,156.956039 67.645752,156.786804 
	C69.468842,155.184708 71.447060,153.726196 73.086861,151.954483 
	C78.733383,145.853775 79.612991,138.039917 78.981590,130.484222 
	C78.401871,123.546906 78.905304,118.415123 86.692070,116.684669 
	C86.972939,116.622253 87.185226,116.255554 87.431625,116.033051 
	C95.387161,108.849182 105.149055,105.721329 115.383606,103.812782 
	C119.054489,103.128227 120.080177,101.566216 118.380722,98.307541 
	C118.380722,98.307541 118.706505,98.068451 119.273346,97.652512 
	C122.583412,93.286674 122.048386,91.791275 116.245041,90.798340 
	C114.537773,90.581894 112.830505,90.365448 110.689140,89.756416 
	C100.425812,91.021843 89.763618,91.316460 82.893433,101.645203 
	C82.627007,102.095741 82.360588,102.546280 82.064194,102.487473 
	C82.054756,102.317375 82.045326,102.147270 81.396370,101.786194 
	C79.785591,102.010338 78.117569,102.040146 76.574677,102.494720 
	C71.775146,103.908791 70.533516,103.236870 69.921402,98.370979 
	C69.529228,95.253418 69.317772,92.113129 68.982079,88.352501 
	C68.966476,88.142418 68.950867,87.932327 69.382980,87.282639 
	C71.266327,86.247696 73.149666,85.212753 75.103737,84.404648 
	C75.392662,84.271835 75.681587,84.139030 75.957840,83.953941 
	C75.957840,83.953941 76.009384,83.969330 76.451088,83.618347 
	C76.954506,83.060951 77.457916,82.503555 77.899628,81.960426 
	C77.899628,81.960426 77.900848,81.897102 78.597717,81.751579 
	C81.404861,80.169189 84.211998,78.586800 87.686447,76.793243 
	C93.028992,74.099846 97.980782,70.999367 100.452660,64.506401 
	C100.958900,63.711998 101.465134,62.917595 102.258141,61.469833 
	C102.799156,59.909065 103.340164,58.348297 104.227402,56.217224 
	C105.507439,53.808716 106.787468,51.400204 108.406548,48.643326 
	C108.631264,48.409828 108.852997,48.173534 109.622818,47.548046 
	C115.098747,41.257862 114.212120,28.193888 107.430260,21.763803 
	C106.973297,21.513205 106.516335,21.262604 105.687561,20.411251 
	C100.349937,15.389267 91.060928,16.136459 85.998619,21.998856 
	C85.998619,21.998856 86.000809,21.988182 85.358986,22.156084 
	C84.235954,23.103970 83.112923,24.051853 81.998650,24.999880 
	C81.998650,24.999880 82.002563,24.994165 81.654747,25.318554 
	C81.426582,25.538963 81.206085,25.766790 81.000000,25.999973 
z"/>
<path fill="#040609" opacity="1.000000" stroke="none" 
	d="
M111.123238,90.148994 
	C112.830505,90.365448 114.537773,90.581894 116.738808,91.260681 
	C117.723885,93.838165 118.215195,95.953308 118.706505,98.068451 
	C118.706505,98.068451 118.380722,98.307541 117.947525,98.550209 
	C113.820450,100.127312 110.047630,101.279121 106.449249,102.834496 
	C99.123962,106.000778 91.892799,109.384796 84.367981,112.676437 
	C83.393440,113.101791 82.673775,113.529808 81.976433,113.974838 
	C81.998756,113.991859 81.980713,113.938675 81.616257,113.961273 
	C72.526886,117.560837 71.497070,119.934929 75.890167,126.544281 
	C75.539017,131.438858 75.243637,136.005020 74.728188,140.871826 
	C73.651909,143.437057 72.795700,145.701675 71.969948,147.977341 
	C72.000404,147.988403 71.942680,147.953995 71.622757,148.051453 
	C65.825920,152.463898 60.348995,156.778885 54.519524,161.212372 
	C50.449776,161.215408 46.732571,161.099960 42.755287,160.771271 
	C40.504311,157.440521 38.513416,154.323059 36.585400,150.772949 
	C36.755413,148.887680 36.862553,147.435043 37.052811,145.633347 
	C38.130665,142.880493 39.125401,140.476700 40.095406,138.043198 
	C40.070671,138.013474 40.008400,138.059341 40.226707,137.857346 
	C40.643955,137.109589 40.842896,136.563812 41.025101,136.034546 
	C41.008369,136.051056 41.055603,136.048935 41.376945,135.955780 
	C42.485600,134.600189 43.272915,133.337753 44.075439,132.057465 
	C44.090645,132.039642 44.044384,132.032120 44.281658,131.951599 
	C44.690559,131.593735 44.862190,131.316391 45.019100,131.021820 
	C45.004379,131.004593 45.039261,131.033142 45.274292,130.947861 
	C45.804516,130.664429 45.979164,130.389633 46.020931,130.024689 
	C46.008598,130.011139 46.032341,130.028305 46.329910,129.935150 
	C46.931477,129.561844 47.235474,129.281708 47.648712,128.968597 
	C47.757946,128.935593 48.021641,128.575485 48.362442,128.432556 
	C52.701519,124.556557 56.699799,120.823471 60.785702,116.801254 
	C59.888050,112.318420 58.902771,108.124733 57.858437,103.531876 
	C57.629276,101.828018 57.269173,100.515434 57.322960,99.220039 
	C57.523926,94.380577 55.148087,93.084343 50.817947,94.243721 
	C49.865593,94.498711 48.899292,94.701599 47.528305,94.956497 
	C44.721531,95.623734 42.325863,96.262947 39.930199,96.902161 
	C36.307590,97.210808 32.684986,97.519447 28.497597,97.526627 
	C24.824839,89.863480 25.505884,88.599358 33.370159,87.945091 
	C38.854862,87.167107 43.905926,86.407829 48.949715,85.602966 
	C55.531776,84.552635 57.444931,82.685852 58.843658,76.467140 
	C59.783066,72.290558 60.942482,68.163452 62.147720,63.686401 
	C63.678555,59.241367 65.065132,55.124149 66.584000,50.815094 
	C66.834618,50.175327 66.952950,49.727398 67.356239,49.085323 
	C73.976547,38.422596 80.202927,27.860025 91.302063,21.506960 
	C91.323746,21.532749 91.421944,21.463604 91.902878,21.421082 
	C103.215408,20.003437 108.910797,24.526682 109.013130,34.873730 
	C109.042236,37.817017 108.217903,40.759796 107.965103,43.718204 
	C107.816238,45.460396 108.021507,47.232849 108.067497,48.991692 
	C106.787468,51.400204 105.507439,53.808716 103.786209,56.692585 
	C102.534142,58.406059 101.723282,59.644176 100.588943,60.984772 
	C97.490768,64.049812 94.716057,67.012367 91.963303,69.993149 
	C91.985245,70.011375 91.993408,69.954903 91.723145,70.081108 
	C90.946854,70.807419 90.440819,71.407524 89.968903,71.998955 
	C90.003021,71.990280 89.985054,71.922211 89.682846,72.076820 
	C85.554047,75.453323 81.727448,78.675217 77.900848,81.897102 
	C77.900848,81.897102 77.899628,81.960426 77.634750,82.020081 
	C76.916382,82.709602 76.462883,83.339470 76.009384,83.969330 
	C76.009384,83.969330 75.957840,83.953941 75.728073,84.012421 
	C75.498314,84.070908 75.033012,84.177811 75.033012,84.177811 
	C73.149666,85.212753 71.266327,86.247696 68.937103,87.638977 
	C68.285339,88.267426 68.079453,88.539528 67.860542,88.827377 
	C67.847519,88.843124 67.887016,88.853477 67.561256,88.958282 
	C64.011429,90.605164 64.257858,93.327560 64.866638,96.532784 
	C65.118393,97.631752 65.325928,98.356094 65.525543,99.430466 
	C66.997528,102.041084 68.477448,104.301682 70.278412,106.694138 
	C72.732475,106.353409 74.865509,105.880821 77.308502,105.279205 
	C78.177368,104.780190 78.736267,104.410187 79.474503,104.035370 
	C79.653854,104.030548 80.006447,103.963959 80.285446,103.890900 
	C81.074348,103.544167 81.584259,103.270493 82.094162,102.996826 
	C82.360588,102.546280 82.627007,102.095741 83.329193,101.334091 
	C92.884384,97.398315 102.003807,93.773651 111.123238,90.148994 
M75.150818,56.199860 
	C73.424355,60.465801 71.697899,64.731743 69.685646,69.694977 
	C70.098366,72.143478 70.511086,74.591972 71.613708,76.857483 
	C74.427750,74.259613 77.241791,71.661743 80.093803,69.173088 
	C80.093803,69.173088 80.203247,69.135773 80.840950,68.956177 
	C82.080299,67.653557 83.319656,66.350945 84.781326,64.959877 
	C84.781326,64.959877 85.033173,64.565056 85.623421,64.150063 
	C89.733437,57.767273 93.843452,51.384483 98.295326,44.367340 
	C98.904221,43.185520 99.634819,42.049435 100.099274,40.813343 
	C101.513000,37.050819 101.367363,33.111778 97.769821,31.059586 
	C94.179939,29.011763 90.878510,30.443476 88.581032,34.263603 
	C85.932724,38.667061 82.849617,42.809029 79.461914,47.508091 
	C78.145294,50.206379 76.828674,52.904667 75.150818,56.199860 
M58.681099,149.840561 
	C64.340332,145.649826 67.296265,140.212341 66.526474,132.296066 
	C66.539101,131.571548 66.551720,130.847046 66.543587,129.483429 
	C65.759033,125.866447 63.511909,126.480171 61.444324,127.999878 
	C59.086845,129.732681 57.014687,131.853653 54.286224,134.235550 
	C52.446396,136.940704 50.268745,139.482803 48.862015,142.397018 
	C47.463161,145.294937 45.083565,149.969116 46.223652,151.396362 
	C48.993649,154.863998 53.362926,153.068283 56.953789,151.085602 
	C57.373848,150.853653 57.695324,150.443161 58.681099,149.840561 
z"/>
<path fill="#1C2D3A" opacity="1.000000" stroke="none" 
	d="
M74.948250,140.571182 
	C75.243637,136.005020 75.539017,131.438858 75.893158,126.136765 
	C74.326836,119.668358 78.819595,117.153725 81.980713,113.938675 
	C81.980713,113.938675 81.998756,113.991859 82.234543,113.929306 
	C83.187836,113.470871 83.905342,113.074974 84.622849,112.679092 
	C91.892799,109.384796 99.123962,106.000778 106.449249,102.834496 
	C110.047630,101.279121 113.820450,100.127312 117.812103,98.700157 
	C120.080177,101.566216 119.054489,103.128227 115.383606,103.812782 
	C105.149055,105.721329 95.387161,108.849182 87.431625,116.033051 
	C87.185226,116.255554 86.972939,116.622253 86.692070,116.684669 
	C78.905304,118.415123 78.401871,123.546906 78.981590,130.484222 
	C79.612991,138.039917 78.733383,145.853775 73.086861,151.954483 
	C71.447060,153.726196 69.468842,155.184708 67.446228,156.563843 
	C68.812027,153.545258 70.377350,150.749619 71.942673,147.953995 
	C71.942680,147.953995 72.000404,147.988403 72.232635,147.744400 
	C73.292664,145.190659 74.120461,142.880920 74.948250,140.571182 
z"/>
<path fill="#1A2A37" opacity="1.000000" stroke="none" 
	d="
M62.003464,64.014214 
	C60.942482,68.163452 59.783066,72.290558 58.843658,76.467140 
	C57.444931,82.685852 55.531776,84.552635 48.949715,85.602966 
	C43.905926,86.407829 38.854862,87.167107 33.007416,87.813583 
	C29.824009,87.424263 27.440214,87.167999 25.056421,86.911736 
	C27.369593,86.066910 29.624994,84.776627 32.007652,84.467636 
	C37.390072,83.769623 42.841877,83.626320 48.252876,83.122314 
	C52.108181,82.763222 53.850994,80.254753 54.812973,76.674698 
	C56.621086,69.945663 58.451710,63.197407 60.814468,56.652630 
	C62.125229,53.021866 64.530655,49.786293 66.723831,46.597805 
	C67.027084,47.641834 67.049179,48.460648 67.071281,49.279465 
	C66.952950,49.727398 66.834618,50.175327 66.293343,51.043800 
	C62.595905,55.035843 60.945534,59.107780 62.003464,64.014214 
z"/>
<path fill="#1B2C3A" opacity="1.000000" stroke="none" 
	d="
M40.124313,97.206421 
	C42.325863,96.262947 44.721531,95.623734 47.760124,95.164001 
	C52.544025,96.119316 55.784367,97.871803 56.549557,102.531235 
	C56.636147,103.058502 57.444057,103.467308 57.917492,103.931038 
	C58.902771,108.124733 59.888050,112.318420 60.490944,116.920715 
	C57.754570,118.568733 55.400574,119.808159 53.033806,121.034668 
	C53.021038,121.021767 52.995331,120.995918 52.995331,120.995918 
	C53.674942,119.483650 54.441288,118.003738 55.019638,116.453697 
	C58.021759,108.407677 54.323780,101.932228 45.958851,100.103142 
	C43.984165,99.671356 42.193657,98.397285 40.124313,97.206421 
z"/>
<path fill="#26333D" opacity="1.000000" stroke="none" 
	d="
M110.906189,89.952705 
	C102.003807,93.773651 92.884384,97.398315 83.388222,101.075462 
	C89.763618,91.316460 100.425812,91.021843 110.906189,89.952705 
z"/>
<path fill="#1B2C3A" opacity="1.000000" stroke="none" 
	d="
M43.015369,160.984528 
	C46.732571,161.099960 50.449776,161.215408 54.911034,161.164703 
	C57.421894,160.675995 59.188702,160.353409 60.955505,160.030838 
	C56.038570,168.300995 45.488770,169.074173 39.464970,161.364716 
	C40.736267,161.070801 41.875820,161.027664 43.015369,160.984528 
z"/>
<path fill="#283540" opacity="1.000000" stroke="none" 
	d="
M108.237022,48.817509 
	C108.021507,47.232849 107.816238,45.460396 107.965103,43.718204 
	C108.217903,40.759796 109.042236,37.817017 109.013130,34.873730 
	C108.910797,24.526682 103.215408,20.003437 92.274857,21.162350 
	C96.812706,17.667141 101.435402,19.473768 106.059372,21.012001 
	C106.516335,21.262604 106.973297,21.513205 107.759621,22.253929 
	C111.500870,31.020519 112.242752,39.401154 109.071754,47.934444 
	C108.852997,48.173534 108.631264,48.409828 108.237022,48.817509 
z"/>
<path fill="#2A353F" opacity="1.000000" stroke="none" 
	d="
M67.356239,49.085323 
	C67.049179,48.460648 67.027084,47.641834 67.005524,46.414116 
	C67.006065,46.005219 67.000069,46.000084 67.193275,45.770660 
	C67.939484,43.962955 68.492485,42.384678 69.045486,40.806400 
	C69.627579,39.414814 70.209671,38.023228 71.230270,36.222313 
	C74.446541,32.873302 77.224297,29.933624 80.002060,26.993942 
	C80.002060,26.993942 80.000000,26.999514 80.171692,26.838791 
	C80.570251,26.456890 80.789703,26.228582 81.001747,25.993145 
	C81.001747,25.993145 81.000000,25.999973 81.170715,25.838875 
	C81.569969,25.457798 81.790344,25.229929 82.002563,24.994165 
	C82.002563,24.994165 81.998650,24.999880 82.287590,24.875202 
	C83.717957,23.829746 84.859383,22.908966 86.000809,21.988184 
	C86.000809,21.988182 85.998619,21.998856 86.411346,21.915455 
	C88.309517,21.715096 89.794952,21.598133 91.280388,21.481171 
	C80.202927,27.860025 73.976547,38.422596 67.356239,49.085323 
z"/>
<path fill="#26333D" opacity="1.000000" stroke="none" 
	d="
M76.998535,105.408226 
	C74.865509,105.880821 72.732475,106.353409 70.126190,106.343910 
	C68.279778,103.601364 66.906624,101.340904 65.533470,99.080444 
	C65.325928,98.356094 65.118393,97.631752 65.038498,96.210968 
	C66.073105,93.294189 66.980057,91.073830 67.887016,88.853477 
	C67.887016,88.853477 67.847519,88.843124 68.148514,88.873863 
	C68.641434,88.930740 68.833366,88.956879 69.025307,88.983025 
	C69.317772,92.113129 69.529228,95.253418 69.921402,98.370979 
	C70.533516,103.236870 71.775146,103.908791 76.574677,102.494720 
	C78.117569,102.040146 79.785591,102.010338 81.485680,102.053055 
	C81.052139,102.867920 80.529289,103.415939 80.006439,103.963959 
	C80.006447,103.963959 79.653854,104.030548 79.171387,104.182274 
	C78.125458,104.692078 77.561996,105.050156 76.998535,105.408226 
z"/>
<path fill="#1B2D3B" opacity="1.000000" stroke="none" 
	d="
M109.347290,47.741245 
	C112.242752,39.401154 111.500870,31.020519 107.989288,22.377043 
	C114.212120,28.193888 115.098747,41.257862 109.347290,47.741245 
z"/>
<path fill="#1B2C3A" opacity="1.000000" stroke="none" 
	d="
M36.969692,145.982422 
	C36.862553,147.435043 36.755413,148.887680 36.417244,151.006866 
	C36.131168,153.783340 36.076122,155.893280 36.021076,158.003204 
	C31.713692,153.339584 31.914007,144.775101 36.748718,138.236084 
	C37.019062,138.020859 37.035694,138.039062 36.971558,138.392899 
	C36.928177,141.158630 36.948933,143.570526 36.969692,145.982422 
z"/>
<path fill="#1B2C3A" opacity="1.000000" stroke="none" 
	d="
M48.021641,128.575485 
	C48.021641,128.575485 47.757946,128.935593 47.391682,129.132599 
	C46.694393,129.562515 46.363369,129.795410 46.032341,130.028305 
	C46.032341,130.028305 46.008598,130.011139 45.846100,130.181152 
	C45.455936,130.566330 45.241158,130.793640 45.039261,131.033142 
	C45.039261,131.033142 45.004379,131.004593 44.844917,131.177917 
	C44.458599,131.565796 44.244911,131.792755 44.044384,132.032120 
	C44.044384,132.032120 44.090645,132.039642 43.740185,132.050354 
	C42.943336,132.061234 42.496952,132.061401 42.029865,132.038910 
	C42.009167,132.016235 41.967445,131.971176 41.967445,131.971176 
	C42.198841,125.291214 47.096085,123.100655 52.654495,121.107109 
	C52.995331,120.995918 53.021038,121.021767 52.891731,121.339798 
	C51.182159,123.963715 49.601898,126.269600 48.021641,128.575485 
z"/>
<path fill="#1B2D3B" opacity="1.000000" stroke="none" 
	d="
M91.302063,21.506960 
	C89.794952,21.598133 88.309517,21.715096 86.405838,21.913969 
	C91.060928,16.136459 100.349937,15.389267 105.873466,20.711626 
	C101.435402,19.473768 96.812706,17.667141 91.793922,21.204872 
	C91.421944,21.463604 91.323746,21.532749 91.302063,21.506960 
z"/>
<path fill="#2D363F" opacity="1.000000" stroke="none" 
	d="
M61.244091,159.889267 
	C59.188702,160.353409 57.421894,160.675995 55.263580,161.046219 
	C60.348995,156.778885 65.825920,152.463898 71.622757,148.051453 
	C70.377350,150.749619 68.812027,153.545258 67.106415,156.648468 
	C66.966125,156.956039 66.985840,156.978348 66.687996,157.070328 
	C65.576660,157.746933 64.763168,158.331558 63.949677,158.916199 
	C63.144012,159.193359 62.338345,159.470535 61.244091,159.889267 
z"/>
<path fill="#1A2B39" opacity="1.000000" stroke="none" 
	d="
M100.064667,64.911224 
	C97.980782,70.999367 93.028992,74.099846 87.540543,76.631401 
	C88.258110,74.953773 89.121582,73.437996 89.985054,71.922211 
	C89.985054,71.922211 90.003021,71.990280 90.205368,71.825554 
	C90.936287,71.092186 91.464844,70.523544 91.993408,69.954903 
	C91.993408,69.954903 91.985245,70.011375 92.284363,69.875916 
	C95.077209,68.130722 97.570938,66.520973 100.064667,64.911224 
z"/>
<path fill="#2A353F" opacity="1.000000" stroke="none" 
	d="
M89.682846,72.076820 
	C89.121582,73.437996 88.258110,74.953773 87.206886,76.736984 
	C84.211998,78.586800 81.404861,80.169189 78.249283,81.824341 
	C81.727448,78.675217 85.554047,75.453323 89.682846,72.076820 
z"/>
<path fill="#283540" opacity="1.000000" stroke="none" 
	d="
M24.959141,87.312149 
	C27.440214,87.167999 29.824009,87.424263 32.570545,87.812027 
	C25.505884,88.599358 24.824839,89.863480 28.064127,97.574890 
	C22.167049,96.125748 24.408997,91.627144 24.959141,87.312149 
z"/>
<path fill="#2A353F" opacity="1.000000" stroke="none" 
	d="
M100.258667,64.708817 
	C97.570938,66.520973 95.077209,68.130722 92.262421,69.857697 
	C94.716057,67.012367 97.490768,64.049812 100.759781,61.197319 
	C101.493179,61.579319 101.732277,61.851254 101.971375,62.123192 
	C101.465134,62.917595 100.958900,63.711998 100.258667,64.708817 
z"/>
<path fill="#26333D" opacity="1.000000" stroke="none" 
	d="
M36.258137,158.192841 
	C36.076122,155.893280 36.131168,153.783340 36.354370,151.439499 
	C38.513416,154.323059 40.504311,157.440521 42.755287,160.771271 
	C41.875820,161.027664 40.736267,161.070801 39.310135,161.066208 
	C38.180767,160.139801 37.337982,159.261154 36.258137,158.192841 
z"/>
<path fill="#1B2D3B" opacity="1.000000" stroke="none" 
	d="
M79.659393,27.077122 
	C77.224297,29.933624 74.446541,32.873302 71.342957,35.918060 
	C73.783669,33.068855 76.550194,30.114576 79.659393,27.077122 
z"/>
<path fill="#1C2D3A" opacity="1.000000" stroke="none" 
	d="
M118.989929,97.860481 
	C118.215195,95.953308 117.723885,93.838165 117.079010,91.406601 
	C122.048386,91.791275 122.583412,93.286674 118.989929,97.860481 
z"/>
<path fill="#1B2C3A" opacity="1.000000" stroke="none" 
	d="
M37.010838,138.011887 
	C38.453953,136.087692 39.905293,134.172485 41.662041,132.114227 
	C41.967445,131.971176 42.009167,132.016235 41.939255,132.367371 
	C41.598099,133.828644 41.326851,134.938797 41.055603,136.048935 
	C41.055603,136.048935 41.008369,136.051056 40.881874,136.282349 
	C40.506390,137.028870 40.257397,137.544113 40.008400,138.059341 
	C40.008400,138.059341 40.070671,138.013474 39.708405,138.028717 
	C38.575993,138.042328 37.805843,138.040710 37.035694,138.039062 
	C37.035694,138.039062 37.019062,138.020859 37.010838,138.011887 
z"/>
<path fill="#1C2D3A" opacity="1.000000" stroke="none" 
	d="
M64.139404,159.041260 
	C64.763168,158.331558 65.576660,157.746933 66.680161,157.065399 
	C66.089828,157.701111 65.209480,158.433716 64.139404,159.041260 
z"/>
<path fill="#1A2B39" opacity="1.000000" stroke="none" 
	d="
M102.114761,61.796513 
	C101.732277,61.851254 101.493179,61.579319 101.083244,61.094841 
	C101.723282,59.644176 102.534142,58.406059 103.613091,56.977737 
	C103.340164,58.348297 102.799156,59.909065 102.114761,61.796513 
z"/>
<path fill="#1A2A37" opacity="1.000000" stroke="none" 
	d="
M68.825920,41.089821 
	C68.492485,42.384678 67.939484,43.962955 67.195007,45.771988 
	C67.537811,44.459576 68.072083,42.916412 68.825920,41.089821 
z"/>
<path fill="#1B2D3B" opacity="1.000000" stroke="none" 
	d="
M85.679901,22.072136 
	C84.859383,22.908966 83.717957,23.829746 82.283211,24.875132 
	C83.112923,24.051853 84.235954,23.103970 85.679901,22.072136 
z"/>
<path fill="#28333D" opacity="1.000000" stroke="none" 
	d="
M80.285439,103.890900 
	C80.529289,103.415939 81.052139,102.867920 81.805435,102.148544 
	C82.045326,102.147270 82.054756,102.317375 82.079178,102.742149 
	C81.584259,103.270493 81.074348,103.544167 80.285439,103.890900 
z"/>
<path fill="#2A353F" opacity="1.000000" stroke="none" 
	d="
M76.230240,83.793839 
	C76.462883,83.339470 76.916382,82.709602 77.665604,82.012947 
	C77.457916,82.503555 76.954506,83.060951 76.230240,83.793839 
z"/>
<path fill="#2A353F" opacity="1.000000" stroke="none" 
	d="
M75.068375,84.291229 
	C75.033012,84.177811 75.498314,84.070908 75.734421,84.038567 
	C75.681587,84.139030 75.392662,84.271835 75.068375,84.291229 
z"/>
<path fill="#1B2D3B" opacity="1.000000" stroke="none" 
	d="
M80.828613,26.155800 
	C80.789703,26.228582 80.570251,26.456890 80.169678,26.840132 
	C80.207878,26.766623 80.427711,26.538710 80.828613,26.155800 
z"/>
<path fill="#1B2D3B" opacity="1.000000" stroke="none" 
	d="
M81.828659,25.156361 
	C81.790344,25.229929 81.569969,25.457798 81.167343,25.839907 
	C81.206085,25.766790 81.426582,25.538963 81.828659,25.156361 
z"/>
<path fill="#28333D" opacity="1.000000" stroke="none" 
	d="
M69.003693,88.667763 
	C68.833366,88.956879 68.641434,88.930740 68.161537,88.858116 
	C68.079453,88.539528 68.285339,88.267426 68.713242,87.858780 
	C68.950867,87.932327 68.966476,88.142418 69.003693,88.667763 
z"/>
<path fill="#1D3241" opacity="1.000000" stroke="none" 
	d="
M66.564339,130.122528 
	C66.551720,130.847046 66.539101,131.571548 66.269958,132.829849 
	C63.363121,138.947571 60.712811,144.531494 58.062500,150.115433 
	C57.695324,150.443161 57.373848,150.853653 56.953789,151.085602 
	C53.362926,153.068283 48.993649,154.863998 46.223652,151.396362 
	C45.083565,149.969116 47.463161,145.294937 48.862015,142.397018 
	C50.268745,139.482803 52.446396,136.940704 54.793098,134.173447 
	C57.048752,133.748199 58.868896,133.580017 60.528271,132.972626 
	C62.609226,132.210907 64.558327,131.088989 66.564339,130.122528 
z"/>
<path fill="#1D2E3B" opacity="1.000000" stroke="none" 
	d="
M79.955330,47.064556 
	C82.849617,42.809029 85.932724,38.667061 88.581032,34.263603 
	C90.878510,30.443476 94.179939,29.011763 97.769821,31.059586 
	C101.367363,33.111778 101.513000,37.050819 100.099274,40.813343 
	C99.634819,42.049435 98.904221,43.185520 97.802795,44.688759 
	C96.881187,45.011585 96.452110,45.012989 96.072929,44.628223 
	C96.221611,43.587761 96.519096,42.888035 96.381821,42.287724 
	C95.974457,40.506351 95.395828,38.764145 94.884155,37.006630 
	C93.118034,37.674866 90.832764,37.867950 89.694901,39.111198 
	C87.393639,41.625591 84.906937,44.471806 83.980431,47.618107 
	C82.776268,51.707306 80.557983,54.246605 77.109756,55.680088 
	C78.140923,52.585289 79.048126,49.824924 79.955330,47.064556 
z"/>
<path fill="#1B2F3D" opacity="1.000000" stroke="none" 
	d="
M85.033173,64.565056 
	C85.033173,64.565056 84.781326,64.959877 84.324295,65.101929 
	C82.583305,65.831688 81.299347,66.419388 80.002411,66.992737 
	C79.989441,66.978378 80.007301,67.015381 80.035446,67.368835 
	C80.110138,68.193451 80.156693,68.664612 80.203247,69.135773 
	C80.203247,69.135773 80.093803,69.173088 79.753143,69.220047 
	C77.604416,70.516800 75.796341,71.766609 73.831909,72.816574 
	C74.095131,69.060265 74.514709,65.503792 74.947769,61.967533 
	C74.961250,61.987747 74.931496,61.968639 75.171097,61.968807 
	C75.410706,61.968975 75.889549,61.971512 76.174103,62.131088 
	C81.095512,64.895752 82.234184,62.040958 82.585564,57.956451 
	C84.213081,57.956451 85.663330,57.956451 86.990463,58.313557 
	C86.255959,60.635460 85.644562,62.600258 85.033173,64.565056 
z"/>
<path fill="#2E3841" opacity="1.000000" stroke="none" 
	d="
M85.328293,64.357559 
	C85.644562,62.600258 86.255959,60.635460 87.233459,58.118690 
	C88.742668,56.063808 89.885773,54.560898 91.280304,52.841583 
	C93.023125,50.089134 94.514503,47.553089 96.005882,45.011543 
	C96.005882,45.006050 96.023026,45.014397 96.023026,45.014397 
	C96.452110,45.012989 96.881187,45.011585 97.631874,45.005936 
	C93.843452,51.384483 89.733437,57.767273 85.328293,64.357559 
z"/>
<path fill="#1D2A36" opacity="1.000000" stroke="none" 
	d="
M58.371796,149.977997 
	C60.712811,144.531494 63.363121,138.947571 66.226761,133.190186 
	C67.296265,140.212341 64.340332,145.649826 58.371796,149.977997 
z"/>
<path fill="#1D2A36" opacity="1.000000" stroke="none" 
	d="
M66.553963,129.802979 
	C64.558327,131.088989 62.609226,132.210907 60.528271,132.972626 
	C58.868896,133.580017 57.048752,133.748199 55.059250,133.958649 
	C57.014687,131.853653 59.086845,129.732681 61.444324,127.999878 
	C63.511909,126.480171 65.759033,125.866447 66.553963,129.802979 
z"/>
<path fill="#374046" opacity="1.000000" stroke="none" 
	d="
M57.858437,103.531876 
	C57.444057,103.467308 56.636147,103.058502 56.549557,102.531235 
	C55.784367,97.871803 52.544025,96.119316 48.171227,95.135971 
	C48.899292,94.701599 49.865593,94.498711 50.817947,94.243721 
	C55.148087,93.084343 57.523926,94.380577 57.322960,99.220039 
	C57.269173,100.515434 57.629276,101.828018 57.858437,103.531876 
z"/>
<path fill="#17242F" opacity="1.000000" stroke="none" 
	d="
M74.934280,61.947319 
	C74.514709,65.503792 74.095131,69.060265 73.614532,73.046707 
	C72.676941,74.664612 71.800377,75.852547 70.923805,77.040474 
	C70.511086,74.591972 70.098366,72.143478 70.143242,69.220222 
	C72.045319,66.479416 73.489799,64.213364 74.934280,61.947319 
z"/>
<path fill="#2D3740" opacity="1.000000" stroke="none" 
	d="
M48.362442,128.432556 
	C49.601898,126.269600 51.182159,123.963715 52.904499,121.352707 
	C55.400574,119.808159 57.754570,118.568733 60.403320,117.209846 
	C56.699799,120.823471 52.701519,124.556557 48.362442,128.432556 
z"/>
<path fill="#303A43" opacity="1.000000" stroke="none" 
	d="
M81.616257,113.961273 
	C78.819595,117.153725 74.326836,119.668358 75.948921,125.808350 
	C71.497070,119.934929 72.526886,117.560837 81.616257,113.961273 
z"/>
<path fill="#27313B" opacity="1.000000" stroke="none" 
	d="
M62.147724,63.686401 
	C60.945534,59.107780 62.595905,55.035843 66.161057,51.235634 
	C65.065132,55.124149 63.678555,59.241367 62.147724,63.686401 
z"/>
<path fill="#26323A" opacity="1.000000" stroke="none" 
	d="
M71.268753,76.948975 
	C71.800377,75.852547 72.676941,74.664612 73.770889,73.246544 
	C75.796341,71.766609 77.604416,70.516800 79.734161,69.165436 
	C77.241791,71.661743 74.427750,74.259613 71.268753,76.948975 
z"/>
<path fill="#333F48" opacity="1.000000" stroke="none" 
	d="
M74.947769,61.967529 
	C73.489799,64.213364 72.045319,66.479416 70.286133,68.871574 
	C71.697899,64.731743 73.424355,60.465801 75.454010,56.001541 
	C75.757210,55.803219 76.000000,56.000153 76.002380,56.379921 
	C75.992577,57.520065 75.980392,58.280449 75.980995,59.018997 
	C75.993782,58.997162 75.996216,58.946617 75.841919,59.230324 
	C75.435577,60.332233 75.183533,61.150436 74.931496,61.968639 
	C74.931496,61.968639 74.961250,61.987747 74.947769,61.967529 
z"/>
<path fill="#26333D" opacity="1.000000" stroke="none" 
	d="
M36.971558,138.392914 
	C37.805843,138.040710 38.575993,138.042328 39.733139,138.058441 
	C39.125401,140.476700 38.130665,142.880493 37.052811,145.633347 
	C36.948933,143.570526 36.928177,141.158630 36.971558,138.392914 
z"/>
<path fill="#28333D" opacity="1.000000" stroke="none" 
	d="
M65.525543,99.430466 
	C66.906624,101.340904 68.279778,103.601364 69.805153,106.212051 
	C68.477448,104.301682 66.997528,102.041084 65.525543,99.430466 
z"/>
<path fill="#333F48" opacity="1.000000" stroke="none" 
	d="
M79.708618,47.286324 
	C79.048126,49.824924 78.140923,52.585289 77.102097,55.706047 
	C76.970490,56.066441 76.963646,56.120613 76.722305,56.093903 
	C76.480972,56.067192 76.000000,56.000153 76.000000,56.000153 
	C76.000000,56.000153 75.757210,55.803219 75.634636,55.703087 
	C76.828674,52.904667 78.145294,50.206379 79.708618,47.286324 
z"/>
<path fill="#28333D" opacity="1.000000" stroke="none" 
	d="
M67.561256,88.958282 
	C66.980057,91.073830 66.073105,93.294189 64.994286,95.836349 
	C64.257858,93.327560 64.011429,90.605164 67.561256,88.958282 
z"/>
<path fill="#2D363F" opacity="1.000000" stroke="none" 
	d="
M74.728188,140.871826 
	C74.120461,142.880920 73.292664,145.190659 72.202179,147.733337 
	C72.795700,145.701675 73.651909,143.437057 74.728188,140.871826 
z"/>
<path fill="#26323A" opacity="1.000000" stroke="none" 
	d="
M80.522095,69.045975 
	C80.156693,68.664612 80.110138,68.193451 80.032135,67.361496 
	C80.000694,67.000694 80.015388,67.007095 80.015388,67.007095 
	C81.299347,66.419388 82.583305,65.831688 84.213135,65.146156 
	C83.319656,66.350945 82.080299,67.653557 80.522095,69.045975 
z"/>
<path fill="#26333D" opacity="1.000000" stroke="none" 
	d="
M41.376942,135.955780 
	C41.326851,134.938797 41.598099,133.828644 41.959953,132.390045 
	C42.496952,132.061401 42.943336,132.061234 43.724979,132.068176 
	C43.272915,133.337753 42.485600,134.600189 41.376942,135.955780 
z"/>
<path fill="#303A43" opacity="1.000000" stroke="none" 
	d="
M84.367981,112.676430 
	C83.905342,113.074974 83.187836,113.470871 82.212219,113.912292 
	C82.673775,113.529808 83.393440,113.101791 84.367981,112.676430 
z"/>
<path fill="#2A353F" opacity="1.000000" stroke="none" 
	d="
M91.723145,70.081108 
	C91.464844,70.523544 90.936287,71.092186 90.171257,71.834229 
	C90.440819,71.407524 90.946854,70.807419 91.723145,70.081108 
z"/>
<path fill="#28333D" opacity="1.000000" stroke="none" 
	d="
M77.308502,105.279205 
	C77.561996,105.050156 78.125458,104.692078 78.992035,104.187088 
	C78.736267,104.410187 78.177368,104.780190 77.308502,105.279205 
z"/>
<path fill="#26333D" opacity="1.000000" stroke="none" 
	d="
M40.226707,137.857346 
	C40.257397,137.544113 40.506390,137.028870 40.898609,136.265839 
	C40.842896,136.563812 40.643955,137.109589 40.226707,137.857346 
z"/>
<path fill="#26333D" opacity="1.000000" stroke="none" 
	d="
M46.329910,129.935150 
	C46.363369,129.795410 46.694393,129.562515 47.282448,129.165604 
	C47.235474,129.281708 46.931477,129.561844 46.329910,129.935150 
z"/>
<path fill="#26333D" opacity="1.000000" stroke="none" 
	d="
M45.274292,130.947861 
	C45.241158,130.793640 45.455936,130.566330 45.858429,130.194702 
	C45.979164,130.389633 45.804516,130.664429 45.274292,130.947861 
z"/>
<path fill="#26333D" opacity="1.000000" stroke="none" 
	d="
M44.281658,131.951599 
	C44.244911,131.792755 44.458599,131.565796 44.859634,131.195145 
	C44.862190,131.316391 44.690559,131.593735 44.281658,131.951599 
z"/>
<path fill="#193446" opacity="1.000000" stroke="none" 
	d="
M91.028877,53.057983 
	C89.885773,54.560898 88.742668,56.063808 87.356567,57.761585 
	C85.663330,57.956451 84.213081,57.956451 82.585564,57.956451 
	C82.234184,62.040958 81.095512,64.895752 76.197662,61.754097 
	C75.956512,60.460556 75.976364,59.703587 75.996216,58.946617 
	C75.996216,58.946617 75.993782,58.997162 76.112762,58.735443 
	C76.475716,57.689354 76.719681,56.904984 76.963646,56.120613 
	C76.963646,56.120613 76.970490,56.066441 76.978149,56.040482 
	C80.557983,54.246605 82.776268,51.707306 83.980431,47.618107 
	C84.906937,44.471806 87.393639,41.625591 89.694901,39.111198 
	C90.832764,37.867950 93.118034,37.674866 94.884155,37.006630 
	C95.395828,38.764145 95.974457,40.506351 96.381821,42.287724 
	C96.519096,42.888035 96.221611,43.587761 96.072929,44.628223 
	C96.023026,45.014397 96.005882,45.006050 95.696075,45.154373 
	C93.933807,47.887791 92.481346,50.472889 91.028877,53.057983 
z"/>
<path fill="#17242F" opacity="1.000000" stroke="none" 
	d="
M75.841919,59.230324 
	C75.976364,59.703587 75.956512,60.460556 75.913101,61.594521 
	C75.889549,61.971512 75.410706,61.968975 75.171097,61.968807 
	C75.183533,61.150436 75.435577,60.332233 75.841919,59.230324 
z"/>
<path fill="#193446" opacity="1.000000" stroke="none" 
	d="
M80.003998,67.008041 
	C80.007301,67.015381 79.989441,66.978378 80.002411,66.992737 
	C80.015388,67.007095 80.000694,67.000694 80.003998,67.008041 
z"/>
<path fill="#1D2E3B" opacity="1.000000" stroke="none" 
	d="
M91.280304,52.841583 
	C92.481346,50.472889 93.933807,47.887791 95.696075,45.159866 
	C94.514503,47.553089 93.023125,50.089134 91.280304,52.841583 
z"/>
<path fill="#17242F" opacity="1.000000" stroke="none" 
	d="
M76.722305,56.093903 
	C76.719681,56.904984 76.475716,57.689354 76.099976,58.757278 
	C75.980392,58.280449 75.992577,57.520065 76.002380,56.379921 
	C76.000000,56.000153 76.480972,56.067192 76.722305,56.093903 
z"/>
</svg>